<?xml version="1.0" encoding="UTF-8"?>
<svg width="512px" height="564px" viewBox="0 0 512 564" version="1.1" xmlns="http://www.w3.org/2000/svg" xmlns:xlink="http://www.w3.org/1999/xlink">
    <!-- Generator: Sketch 50.2 (55047) - http://www.bohemiancoding.com/sketch -->
    <title>Shape</title>
    <desc>Created with Sketch.</desc>
    <defs></defs>
    <g id="Page-1" stroke="none" stroke-width="1" fill="none" fill-rule="evenodd">
        <g id="noun_Change-vehicle_776595" fill="#000000" fill-rule="nonzero">
            <path d="M121.872421,213.3543 C128.75804,213.694032 135.264633,216.608686 140.102246,221.520421 C146.604567,204.198914 154.529288,187.445272 163.795267,171.431042 C172.796215,159.221527 186.454872,151.288602 201.520077,149.520534 C219.630913,146.744513 237.949152,145.551507 256.267058,145.955044 C274.584963,145.551507 292.903203,146.744513 311.014038,149.520534 C326.250948,151.267083 340.058902,159.318326 349.083893,171.718582 C358.350104,187.73269 366.274835,204.486351 372.776914,221.807961 C377.614526,216.896225 384.121119,213.981571 391.006738,213.641839 L396.757472,213.641839 C405.48092,213.796222 412.506665,220.847491 412.629495,229.571527 C412.629495,232.906985 412.629495,236.58749 412.629495,241.073106 C412.41591,250.05722 405.167117,257.280738 396.182398,257.462857 L388.188879,257.462857 C388.993982,258.574676 389.779915,259.686496 390.54668,260.798315 C398.342635,272.475893 402.358016,286.268865 402.048146,300.306241 L402.048146,378.28695 C402.048146,387.306998 394.736024,394.619193 385.716064,394.619193 L364.610873,394.619193 C355.590912,394.619193 348.27879,387.306998 348.27879,378.28695 L348.27879,366.037768 L164.255325,366.037768 L164.255325,378.28695 C164.257309,387.173949 157.153216,394.431439 148.268287,394.619193 L127.163096,394.619193 C118.143136,394.619193 110.831013,387.306998 110.831013,378.28695 L110.831013,300.018701 C110.521143,285.981326 114.536525,272.188354 122.33248,260.510776 C123.099244,259.398956 123.885178,258.287137 124.69028,257.175318 L116.696761,257.175318 C107.712043,256.993199 100.46325,249.769681 100.249664,240.785567 C100.249664,236.357459 100.249664,232.676953 100.249664,229.283987 C100.372495,220.559952 107.398239,213.508682 116.121688,213.3543 L121.872421,213.3543 Z M314.234449,283.628951 L313.946912,283.628951 C307.847626,285.314196 303.917211,291.229762 304.72699,297.505614 C305.53677,303.781466 310.840033,308.505577 317.167323,308.587378 L347.071136,308.587378 C354.09019,308.587378 359.780257,302.897255 359.780257,295.878133 L359.780257,288.057059 C359.676095,284.231664 357.853797,280.656842 354.81936,278.325211 C351.784923,275.99358 347.86141,275.15338 344.138262,276.037908 L314.234449,283.628951 Z M152.753859,288.057059 L152.753859,295.878133 C152.625421,302.87571 158.17852,308.660245 165.175443,308.81741 L195.079256,308.81741 C201.406546,308.735609 206.709809,304.011497 207.519588,297.735645 C208.329368,291.459793 204.398952,285.544228 198.299666,283.858982 L168.395853,276.037908 C164.672705,275.15338 160.749193,275.99358 157.714756,278.325211 C154.680318,280.656842 152.858021,284.231664 152.753859,288.057059 Z M0.646963835,281.788698 C0.383000259,195.456712 43.9565555,114.892489 116.351717,67.8593191 C118.574363,66.4230604 121.432503,66.4230604 123.655149,67.8593191 L161.149929,92.3001755 C162.427206,93.1157297 163.165793,94.5563802 163.082392,96.0695358 C162.998991,97.5826913 162.106548,98.9334416 160.747378,99.6036785 C77.8566643,142.958989 34.6560079,236.783685 55.6063927,327.952545 C76.5567776,419.121406 156.382062,484.674481 249.883744,487.494447 L249.883744,469.379459 C249.85311,466.487705 251.432291,463.818598 253.981612,462.453309 C256.530933,461.088019 259.627808,461.252863 262.017791,462.881067 L328.208731,506.069498 C330.402319,507.503396 331.724457,509.947206 331.724457,512.56789 C331.724457,515.188575 330.402319,517.632385 328.208731,519.066283 L262.017791,562.312222 C259.633744,563.844805 256.603998,563.956453 254.11362,562.603494 C251.623242,561.250534 250.068018,558.64799 250.056266,555.813829 L250.056266,537.411302 C111.521947,533.559723 1.09049844,420.377198 0.646963835,281.788698 Z M180.75993,50.9519972 C180.747621,48.3301433 182.069218,45.881915 184.267877,44.4536048 L250.516324,1.26517375 C252.900371,-0.26740987 255.930117,-0.379057176 258.420495,0.973901984 C260.910874,2.32686114 262.466097,4.92940562 262.47785,7.76356616 L262.47785,26.1660934 C374.321633,28.9542788 471.363193,104.135672 502.006319,211.736935 C532.649445,319.338199 489.776385,434.365829 396.182398,495.660569 C393.959753,497.096827 391.101612,497.096827 388.878967,495.660569 L351.384186,471.219712 C350.138827,470.382719 349.426292,468.95173 349.508871,467.453502 C349.591449,465.955274 350.456936,464.611263 351.786737,463.916209 C434.616298,420.532762 477.766514,326.743298 456.822392,235.615204 C435.87827,144.487109 356.109504,78.9488756 262.650372,76.0829484 L262.650372,94.1979361 C262.681006,97.0896906 261.101825,99.7587971 258.552503,101.124087 C256.003182,102.489377 252.906308,102.324533 250.516324,100.696329 L184.267877,57.5078975 C182.051902,56.0685731 180.727912,53.5942068 180.75993,50.9519972 Z" id="Shape"></path>
        </g>
    </g>
</svg>